<svg width="49" height="66" viewBox="0 0 49 66" fill="none" xmlns="http://www.w3.org/2000/svg">
<path fill-rule="evenodd" clip-rule="evenodd" d="M10.4113 16.3218L12.2809 15.661C14.4648 14.889 16.0188 12.8059 16.0188 10.3714C16.0188 7.27448 13.5082 4.76393 10.4113 4.76393C7.3144 4.76393 4.80385 7.27448 4.80385 10.3714C4.80385 12.8059 6.3578 14.889 8.54177 15.661L10.4113 16.3218ZM23.7906 49.2774L21.9724 50.0688C19.9788 50.9365 18.5991 52.9196 18.5991 55.2148C18.5991 58.3117 21.1097 60.8222 24.2066 60.8222C27.3035 60.8222 29.8141 58.3117 29.8141 55.2148C29.8141 52.6447 28.0812 50.4678 25.7118 49.8104L23.7906 49.2774ZM38.0023 16.3218L39.8718 15.6608C42.0556 14.8888 43.6093 12.8058 43.6093 10.3714C43.6093 7.27448 41.0988 4.76393 38.0018 4.76393C34.9049 4.76393 32.3944 7.27448 32.3944 10.3714C32.3944 12.8061 33.9485 14.8893 36.1327 15.6611L38.0023 16.3218ZM13.7758 19.8905V24.0812C13.7758 25.9989 14.7558 27.7836 16.374 28.8128L23.7504 33.5042L31.5243 29.6445C33.4317 28.6974 34.6381 26.7516 34.6381 24.622V19.8908C30.7174 18.5053 27.9084 14.7664 27.9084 10.3714C27.9084 4.79695 32.4274 0.277954 38.0018 0.277954C43.5763 0.277954 48.0953 4.79695 48.0953 10.3714C48.0953 14.7659 45.2869 18.5045 41.367 19.8903V24.622C41.367 29.3071 38.7131 33.5879 34.5167 35.6714L26.911 39.4477V45.4877C31.1722 46.6699 34.3 50.5771 34.3 55.2148C34.3 60.7892 29.781 65.3082 24.2066 65.3082C18.6321 65.3082 14.1131 60.7892 14.1131 55.2148C14.1131 51.0708 16.6104 47.5102 20.182 45.9556V39.2093L12.7629 34.4907C9.20289 32.2266 7.04684 28.3002 7.04684 24.0812V19.8905C3.12657 18.5049 0.317871 14.7662 0.317871 10.3714C0.317871 4.79695 4.83686 0.277954 10.4113 0.277954C15.9858 0.277954 20.5048 4.79695 20.5048 10.3714C20.5048 14.7662 17.6961 18.5049 13.7758 19.8905Z" fill="#82828E"/>
</svg>
